<svg xmlns="http://www.w3.org/2000/svg" xmlns:xlink="http://www.w3.org/1999/xlink" width="512" zoomAndPan="magnify" viewBox="0 0 384 383.999986" height="512" preserveAspectRatio="xMidYMid meet" version="1.0"><defs><clipPath id="963f64a966"><path d="M 32.632812 226 L 111 226 L 111 268 L 32.632812 268 Z M 32.632812 226 " clip-rule="nonzero"/></clipPath><clipPath id="f42e7ef909"><path d="M 113 68 L 351.382812 68 L 351.382812 345.582031 L 113 345.582031 Z M 113 68 " clip-rule="nonzero"/></clipPath><clipPath id="c92d1795c6"><path d="M 257 32.082031 L 322 32.082031 L 322 96 L 257 96 Z M 257 32.082031 " clip-rule="nonzero"/></clipPath></defs><g clip-path="url(#963f64a966)"><path fill="#fbf8ef" d="M 49.960938 226.542969 L 32.757812 254.558594 C 64.828125 249.492188 90.917969 253.832031 110.980469 267.605469 C 96.402344 248.242188 76.054688 234.546875 49.9375 226.542969 Z M 49.960938 226.542969 " fill-opacity="1" fill-rule="evenodd"/></g><path fill="#78b3ce" d="M 35.796875 211.859375 C 73.089844 216.875 102.039062 235.199219 122.621094 266.796875 C 117.476562 234.886719 101.3125 209.46875 74.078125 190.5 Z M 35.796875 211.859375 " fill-opacity="1" fill-rule="evenodd"/><path fill="#fbf8ef" d="M 54.664062 159.417969 C 105.523438 192.214844 133.070312 237.355469 137.332031 294.785156 C 145.828125 249.492188 133.148438 208.898438 99.335938 173.011719 C 127.664062 164.875 149.492188 145.644531 164.800781 115.316406 C 215.292969 203.257812 199.207031 273.527344 116.542969 326.152344 C 221.246094 289.875 236.96875 179.273438 163.707031 80.910156 C 147.386719 135.5625 111.058594 161.730469 54.691406 159.417969 Z M 54.664062 159.417969 " fill-opacity="1" fill-rule="evenodd"/><g clip-path="url(#f42e7ef909)"><path fill="#78b3ce" d="M 180.082031 68.722656 C 267.292969 179.089844 239.566406 304.117188 113.5 345.59375 C 245.671875 337.953125 324.90625 253.519531 351.257812 92.292969 C 316.488281 139.433594 259.421875 131.585938 180.082031 68.722656 Z M 180.082031 68.722656 " fill-opacity="1" fill-rule="evenodd"/></g><g clip-path="url(#c92d1795c6)"><path fill="#78b3ce" d="M 289.097656 95.878906 C 306.664062 95.878906 321.011719 81.558594 321.011719 63.96875 C 321.011719 46.398438 306.691406 32.054688 289.097656 32.054688 C 271.53125 32.054688 257.183594 46.375 257.183594 63.96875 C 257.183594 81.535156 271.53125 95.878906 289.097656 95.878906 Z M 289.097656 95.878906 " fill-opacity="1" fill-rule="evenodd"/></g><path fill="#fbf8ef" d="M 165.789062 199.128906 C 166.828125 200.945312 166.28125 202.738281 164.097656 204.480469 L 160.019531 197.386719 C 161.679688 197.101562 162.953125 197.101562 163.785156 197.359375 C 164.617188 197.644531 165.292969 198.21875 165.8125 199.101562 Z M 150.167969 191.355469 C 148.480469 191.644531 147.257812 191.644531 146.453125 191.355469 C 145.648438 191.046875 145.023438 190.527344 144.582031 189.746094 C 144.113281 188.941406 143.984375 188.082031 144.21875 187.199219 C 144.453125 186.316406 145.101562 185.433594 146.246094 184.546875 L 150.195312 191.382812 Z M 172.960938 194.476562 C 171.324219 191.644531 169.140625 189.875 166.410156 189.175781 C 163.683594 188.472656 160.097656 188.707031 155.652344 189.875 L 151.234375 182.234375 C 152.457031 181.871094 153.753906 181.664062 155.105469 181.585938 C 156.457031 181.507812 157.835938 181.507812 159.238281 181.613281 L 159.210938 173.738281 C 157.261719 173.554688 155.339844 173.609375 153.445312 173.867188 C 151.546875 174.128906 149.625 174.648438 147.621094 175.425781 L 145.882812 172.386719 L 140.605469 175.425781 L 142.292969 178.363281 C 140.8125 179.453125 139.566406 180.625 138.550781 181.921875 C 137.539062 183.195312 136.8125 184.546875 136.394531 185.953125 C 135.953125 187.355469 135.824219 188.757812 135.980469 190.214844 C 136.136719 191.644531 136.628906 193.070312 137.433594 194.5 C 138.292969 195.984375 139.28125 197.152344 140.371094 198.035156 C 141.488281 198.894531 142.738281 199.492188 144.113281 199.828125 C 145.492188 200.167969 147.050781 200.246094 148.765625 200.0625 C 150.480469 199.90625 152.402344 199.542969 154.535156 198.996094 L 159.1875 207.054688 C 157.496094 207.625 155.808594 207.9375 154.09375 207.988281 C 152.402344 208.039062 150.558594 207.964844 148.558594 207.703125 L 147.933594 215.757812 C 150.351562 216.070312 152.847656 216.046875 155.339844 215.679688 C 157.859375 215.316406 160.304688 214.667969 162.644531 213.652344 L 165.605469 218.773438 L 170.882812 215.734375 L 167.996094 210.71875 C 169.53125 209.625 170.777344 208.40625 171.789062 207.105469 C 172.804688 205.804688 173.503906 204.453125 173.949219 203.050781 C 174.390625 201.648438 174.519531 200.246094 174.390625 198.789062 C 174.257812 197.335938 173.765625 195.90625 172.960938 194.5 Z M 172.960938 194.476562 " fill-opacity="1" fill-rule="evenodd"/></svg>